<?xml version="1.0" encoding="UTF-8"?>
<svg id="Layer_1" data-name="Layer 1" xmlns="http://www.w3.org/2000/svg" viewBox="0 0 439.2 285.82">
  <defs>
    <style>
      .cls-1 {
        fill-rule: evenodd;
      }

      .cls-1, .cls-2 {
        fill: #adb5bd;
      }
    </style>
  </defs>
  <path class="cls-1" d="M99.16,0h62.64c24.32,39.2,48.64,78.4,72.96,117.6h-45.84c-2.96,0-14.71.71-16.08-.48-4.8-7.52-9.6-15.04-14.4-22.56h-.24v23.04h-59.04V0Z"/>
  <path class="cls-1" d="M281.56,0h59.04v117.6h-59.04V0Z"/>
  <path class="cls-1" d="M99.16,170.88h59.04v114.72h-59.04v-114.72Z"/>
  <path class="cls-1" d="M281.56,170.88h59.04v114.72h-46.8c-3.01,0-15.17.73-16.56-.48-23.68-38.08-47.36-76.16-71.04-114.24h61.92c1.73,3.33,10.86,19.53,13.44,20.64v-20.64Z"/>
  <path class="cls-2" d="M9.36,122.77l17.88,28.74h.12v-28.74h8.82v42.84h-9.42l-17.82-28.68h-.12v28.68H0v-42.84h9.36Z"/>
  <path class="cls-2" d="M58.65,149.62c.42,1.7,1.09,3.23,2.01,4.59.92,1.36,2.12,2.45,3.6,3.27,1.48.82,3.28,1.23,5.4,1.23s3.92-.41,5.4-1.23c1.48-.82,2.68-1.91,3.6-3.27.92-1.36,1.59-2.89,2.01-4.59.42-1.7.63-3.45.63-5.25s-.21-3.7-.63-5.46c-.42-1.76-1.09-3.33-2.01-4.71-.92-1.38-2.12-2.48-3.6-3.3-1.48-.82-3.28-1.23-5.4-1.23s-3.92.41-5.4,1.23c-1.48.82-2.68,1.92-3.6,3.3-.92,1.38-1.59,2.95-2.01,4.71-.42,1.76-.63,3.58-.63,5.46s.21,3.55.63,5.25ZM50.04,135.46c.96-2.74,2.34-5.13,4.14-7.17s4.01-3.64,6.63-4.8c2.62-1.16,5.57-1.74,8.85-1.74s6.28.58,8.88,1.74c2.6,1.16,4.8,2.76,6.6,4.8s3.18,4.43,4.14,7.17c.96,2.74,1.44,5.71,1.44,8.91s-.48,6.03-1.44,8.73-2.34,5.05-4.14,7.05c-1.8,2-4,3.57-6.6,4.71-2.6,1.14-5.56,1.71-8.88,1.71s-6.23-.57-8.85-1.71c-2.62-1.14-4.83-2.71-6.63-4.71-1.8-2-3.18-4.35-4.14-7.05s-1.44-5.61-1.44-8.73.48-6.17,1.44-8.91Z"/>
  <path class="cls-2" d="M125.04,149.05l-5.4-15.72h-.12l-5.58,15.72h11.1ZM124.5,122.77l16.02,42.84h-9.78l-3.24-9.54h-16.02l-3.36,9.54h-9.48l16.2-42.84h9.66Z"/>
  <path class="cls-2" d="M159.66,122.77v16.44h17.34v-16.44h9.42v42.84h-9.42v-18.48h-17.34v18.48h-9.42v-42.84h9.42Z"/>
  <path class="cls-2" d="M230.58,155.05c.52,1,1.21,1.81,2.07,2.43.86.62,1.87,1.08,3.03,1.38,1.16.3,2.36.45,3.6.45.84,0,1.74-.07,2.7-.21.96-.14,1.86-.41,2.7-.81.84-.4,1.54-.95,2.1-1.65.56-.7.84-1.59.84-2.67,0-1.16-.37-2.1-1.11-2.82-.74-.72-1.71-1.32-2.91-1.8s-2.56-.9-4.08-1.26c-1.52-.36-3.06-.76-4.62-1.2-1.6-.4-3.16-.89-4.68-1.47-1.52-.58-2.88-1.33-4.08-2.25-1.2-.92-2.17-2.07-2.91-3.45-.74-1.38-1.11-3.05-1.11-5.01,0-2.2.47-4.11,1.41-5.73.94-1.62,2.17-2.97,3.69-4.05,1.52-1.08,3.24-1.88,5.16-2.4,1.92-.52,3.84-.78,5.76-.78,2.24,0,4.39.25,6.45.75,2.06.5,3.89,1.31,5.49,2.43,1.6,1.12,2.87,2.55,3.81,4.29.94,1.74,1.41,3.85,1.41,6.33h-9.12c-.08-1.28-.35-2.34-.81-3.18-.46-.84-1.07-1.5-1.83-1.98-.76-.48-1.63-.82-2.61-1.02-.98-.2-2.05-.3-3.21-.3-.76,0-1.52.08-2.28.24-.76.16-1.45.44-2.07.84-.62.4-1.13.9-1.53,1.5-.4.6-.6,1.36-.6,2.28,0,.84.16,1.52.48,2.04.32.52.95,1,1.89,1.44.94.44,2.24.88,3.9,1.32,1.66.44,3.83,1,6.51,1.68.8.16,1.91.45,3.33.87,1.42.42,2.83,1.09,4.23,2.01,1.4.92,2.61,2.15,3.63,3.69,1.02,1.54,1.53,3.51,1.53,5.91,0,1.96-.38,3.78-1.14,5.46-.76,1.68-1.89,3.13-3.39,4.35-1.5,1.22-3.36,2.17-5.58,2.85s-4.79,1.02-7.71,1.02c-2.36,0-4.65-.29-6.87-.87s-4.18-1.49-5.88-2.73c-1.7-1.24-3.05-2.82-4.05-4.74-1-1.92-1.48-4.2-1.44-6.84h9.12c0,1.44.26,2.66.78,3.66Z"/>
  <path class="cls-2" d="M290.22,149.05l-5.4-15.72h-.12l-5.58,15.72h11.1ZM289.68,122.77l16.02,42.84h-9.78l-3.24-9.54h-16.02l-3.36,9.54h-9.48l16.2-42.84h9.66Z"/>
  <path class="cls-2" d="M333.24,157.69c1.36,0,2.68-.22,3.96-.66,1.28-.44,2.42-1.17,3.42-2.19,1-1.02,1.8-2.35,2.4-3.99.6-1.64.9-3.64.9-6,0-2.16-.21-4.11-.63-5.85s-1.11-3.23-2.07-4.47c-.96-1.24-2.23-2.19-3.81-2.85-1.58-.66-3.53-.99-5.85-.99h-6.72v27h8.4ZM333.9,122.77c2.76,0,5.33.44,7.71,1.32,2.38.88,4.44,2.2,6.18,3.96,1.74,1.76,3.1,3.96,4.08,6.6.98,2.64,1.47,5.74,1.47,9.3,0,3.12-.4,6-1.2,8.64-.8,2.64-2.01,4.92-3.63,6.84s-3.64,3.43-6.06,4.53c-2.42,1.1-5.27,1.65-8.55,1.65h-18.48v-42.84h18.48Z"/>
  <path class="cls-2" d="M387.78,149.05l-5.4-15.72h-.12l-5.58,15.72h11.1ZM387.24,122.77l16.02,42.84h-9.78l-3.24-9.54h-16.02l-3.36,9.54h-9.48l16.2-42.84h9.66Z"/>
  <path class="cls-2" d="M404.1,130.69v-7.92h35.1v7.92h-12.84v34.92h-9.42v-34.92h-12.84Z"/>
  <path class="cls-1" d="M99.16,0h62.64c24.32,39.2,48.64,78.4,72.96,117.6h-45.84c-2.96,0-14.71.71-16.08-.48-4.8-7.52-9.6-15.04-14.4-22.56h-.24v23.04h-59.04V0Z"/>
  <path class="cls-1" d="M281.56,0h59.04v117.6h-59.04V0Z"/>
  <path class="cls-1" d="M99.16,170.88h59.04v114.72h-59.04v-114.72Z"/>
  <path class="cls-1" d="M281.56,170.88h59.04v114.72h-46.8c-3.01,0-15.17.73-16.56-.48-23.68-38.08-47.36-76.16-71.04-114.24h61.92c1.73,3.33,10.86,19.53,13.44,20.64v-20.64Z"/>
</svg>